<svg id="visual" viewBox="0 0 900 600" width="900" height="600" xmlns="http://www.w3.org/2000/svg" xmlns:xlink="http://www.w3.org/1999/xlink" version="1.1"><rect width="900" height="600" fill="#931F1F"></rect><g><g transform="translate(710 400)"><path d="M91.3 -70.4C110.9 -48.3 114.1 -10.8 104.8 21.6C95.6 54 73.9 81.3 47.6 90.9C21.2 100.6 -9.8 92.7 -40.7 79.6C-71.6 66.6 -102.4 48.5 -105.7 26.4C-109 4.2 -84.7 -22 -62.5 -44.7C-40.3 -67.4 -20.2 -86.6 7.9 -92.9C35.9 -99.1 71.8 -92.5 91.3 -70.4Z" fill="#F7CACA"></path></g><g transform="translate(378 477)"><path d="M59.4 -50.1C69.8 -34.2 66.3 -10 60.3 12.8C54.3 35.5 45.9 56.6 28.1 69.4C10.3 82.3 -16.8 86.8 -39.1 77.5C-61.4 68.2 -78.8 45.1 -80.2 22.9C-81.7 0.7 -67.1 -20.6 -51.1 -37.7C-35 -54.8 -17.5 -67.8 3.5 -70.5C24.5 -73.3 48.9 -65.9 59.4 -50.1Z" fill="#F7CACA"></path></g><g transform="translate(470 136)"><path d="M45.3 -39.2C53.5 -25.8 51.5 -7.2 48.7 13.6C46 34.4 42.4 57.4 28.4 67.3C14.5 77.2 -9.8 74 -27.3 63.1C-44.9 52.2 -55.7 33.7 -56.6 16.7C-57.5 -0.3 -48.5 -15.9 -37.4 -29.9C-26.3 -44 -13.1 -56.5 2.7 -58.7C18.5 -60.8 37 -52.6 45.3 -39.2Z" fill="#F7CACA"></path></g><g transform="translate(56 274)"><path d="M40.6 -30.7C51.6 -18.5 58.9 -1.7 57.1 15.8C55.4 33.4 44.5 51.6 28.2 60.1C11.9 68.5 -9.9 67.2 -23.8 57.4C-37.7 47.7 -43.8 29.5 -46 12.6C-48.1 -4.3 -46.5 -20 -38.2 -31.6C-29.9 -43.1 -14.9 -50.5 -0.1 -50.4C14.8 -50.4 29.6 -42.9 40.6 -30.7Z" fill="#F7CACA"></path></g><g transform="translate(863 28)"><path d="M88.9 -69.5C104 -52.1 97.1 -15.7 86.6 15.6C76.1 46.8 62 73.1 38.3 87.5C14.7 101.9 -18.4 104.5 -48.3 92.9C-78.1 81.3 -104.6 55.6 -112 25C-119.4 -5.6 -107.7 -41 -85.8 -60.1C-64 -79.1 -32 -81.7 2.5 -83.6C36.9 -85.6 73.9 -87 88.9 -69.5Z" fill="#F7CACA"></path></g><g transform="translate(3 575)"><path d="M50.5 -38.1C61.2 -26.8 62.7 -6.1 56.7 9.9C50.6 25.9 36.9 37 21.2 44.9C5.6 52.7 -12.1 57.2 -27 51.7C-41.9 46.2 -54 30.6 -55 15.6C-56 0.7 -45.7 -13.8 -34.7 -25.1C-23.6 -36.4 -11.8 -44.6 4 -47.9C19.9 -51.1 39.7 -49.3 50.5 -38.1Z" fill="#F7CACA"></path></g><g transform="translate(191 12)"><path d="M78 -71.1C89.9 -47.1 80.9 -15.4 70 9.5C59.2 34.3 46.5 52.3 27.2 64.8C7.8 77.3 -18.1 84.5 -44.6 77.5C-71.1 70.6 -98.1 49.6 -103.6 24.1C-109.1 -1.4 -93 -31.4 -72.1 -57.4C-51.3 -83.3 -25.6 -105.3 3.7 -108.2C33 -111.2 66 -95 78 -71.1Z" fill="#F7CACA"></path></g></g></svg>